<?xml version="1.0" encoding="utf-8"?>
<!-- Generator: Adobe Illustrator 18.1.1, SVG Export Plug-In . SVG Version: 6.00 Build 0)  -->
<svg version="1.1" id="Layer_1" xmlns="http://www.w3.org/2000/svg" xmlns:xlink="http://www.w3.org/1999/xlink" x="0px" y="0px"
	 viewBox="0 0 300 70" style="enable-background:new 0 0 300 70;" xml:space="preserve">
<style type="text/css">
	.st0{fill:#FFFFFF;}
</style>
<g>
	<g>
		<g>
			<g>
				<path class="st0" d="M26.2,28.9l4.7,14.2h15l4.7-14.2l-12.2-8.7L26.2,28.9z M47,30.2l-3.2,9.8H33l-3.3-10l8.6-6.2l8.6,6.2
					L47,30.2z"/>
				<path class="st0" d="M66.8,23.6l-4.7-1.5l-2.8-0.9v0l0-17.1L43,9.3l-4.6-6.3l-1.7,2.3l-2.9,4L17.4,4l0,17.1l-7.5,2.4l2.6,3.6
					l2,2.8l-10,13.9l16.2,5.3l0,7.9l7.5-2.4l0,0l0,0l0.1,0.1l10,13.7l10.1-13.8l0,0l0,0l7.6,2.4v-8l0.2-0.1l2-0.6l14.1-4.6L62.2,30
					L66.8,23.6z M56.3,8.1L56.3,8.1L56.3,8.1l0,12l0,0v0l-2.8-0.9l-2.8-0.9l-0.9,1.3l-2.5-1.8l0,0l0,0l0.9-1.3l-3.4-4.7L56.3,8.1z
					 M20.4,8.1L20.4,8.1L20.4,8.1l11.5,3.7l-3.4,4.7l0.5,0.7l0.4,0.5l-2.5,1.8l0,0l0,0l-0.9-1.3l-5.5,1.8v0l0,0L20.4,8.1z
					 M20.8,40.2l0,5.8L18,45.1l-8.7-2.8l0,0l0,0l7-9.7l0,0l0,0l2,2.7l1.4,2l0.6-0.2l0.9-0.3l0,0l0,0l0.6,1.8l0.4,1.1L20.8,40.2z
					 M38.4,63.3L38.4,63.3L38.4,63.3l-7.1-9.7l5.5-1.8v-1.6h0h3.1h0v0.8l0,0.8l2.8,0.9l2.8,0.9l-1.6,2.2L38.4,63.3z M53,42.4v10.6
					l0,0v0l-10.1-3.3l0-2.4h-9.1l0,2.4l-0.2,0.1l-1.2,0.4L23.8,53v0l0,0l0-10.6l2.3-0.7L23.2,33l-1.5,0.5l-0.8,0.2l0,0l0,0l-6.2-8.5
					l10-3.3l1.4,2l7.4-5.4l-1.4-2L38.4,8l6.2,8.5l-1.4,2l7.4,5.4l1.4-2l10,3.3l-6.2,8.5l0,0l0,0L53.5,33l-2,6.3l-0.8,2.4l0.8,0.2
					L53,42.4z M67.4,42.3L67.4,42.3L67.4,42.3l-7.8,2.5L56,46v-5.8l-1.5-0.5l0.6-1.8l0.4-1.2l1,0.3l0.5,0.2l1.1-1.6l2.3-3.1l0,0l0,0
					l2.4,3.3L67.4,42.3z"/>
			</g>
		</g>
	</g>
	<g>
		<path class="st0" d="M95.4,13.1l19.9,0c3.5,0,6.6,1.2,9.1,3.8c2.6,2.5,3.8,5.5,3.8,9c0,2.9-0.9,5.5-2.6,7.8
			c-1.7,2.2-3.9,3.7-6.6,4.4l10.8,20.1h-3.2l-10.6-19.6l-17.9,0l0,19.6l-2.7,0L95.4,13.1z M98.1,15.7l0,20.2l17.2,0
			c2.8,0,5.2-1,7.2-2.9c2-2,3-4.3,3-7.1c0-2.8-1-5.2-3-7.2c-2-2-4.3-3-7.2-3L98.1,15.7z"/>
		<path class="st0" d="M140,34.4l-2.6,0c0-0.5-0.1-1.2,0.9-3.3c0.5-1.1,1.1-2,2-2.9c1.6-1.8,5.4-3.4,10.2-3.4c3.9,0,6.8,1,8.4,2.4
			c2.4,2.3,2.8,5,2.7,7.1v19.3c0,1.4,1,2.7,2.8,2.7c1.1,0,2.2-0.7,2.5-1.2l0.3-0.5l2.3,1c-0.1,0.2-0.3,0.5-0.5,0.8
			c-0.5,0.7-2.4,2.2-4.5,2.2c-3.4,0-5.3-2.5-5.3-5.4l0-1l-0.9,1c-1.6,1.9-3.6,3.3-5.8,4.1c-2.2,0.8-3.9,1.2-5.1,1.2
			c-1.3,0-2.5-0.1-4.9-0.8c-3.4-1-6.6-3.7-6.7-9.5c0-2.7,1.2-4.8,3.5-6.4c2.3-1.6,5.1-2.7,8.3-3.3l11.4-2.3v-2.1
			c0-1.6-0.2-2.7-1.2-4.3c-1-1.6-3.5-2.6-7.2-2.6c-8.4,0-10,4.5-10.5,6.3L140,34.4z M159,38.8L148.2,41c-6.6,1.3-9.9,3.9-9.9,7.6
			c0,2.7,1.3,4.8,2.7,5.8c2.6,1.5,5.3,1.8,6.3,1.8c2.6,0,5.1-0.8,7.7-2.6c2.6-1.8,3.9-4,3.9-6.9V38.8z"/>
		<polygon class="st0" points="195.1,25.3 183.6,55.9 172.1,25.3 169.4,25.3 181.8,58.2 185.4,58.2 197.8,25.3 		"/>
		<g>
			<path class="st0" d="M206.1,53.9c-3-3.2-4.4-7.2-4.4-12.1c0-5,1.4-9,4.4-12.2c3-3.2,6.5-4.8,10.8-4.8c4.3,0,7.8,1.6,10.4,4.8
				c2.7,3.1,4.1,7.2,4.1,12.2v0.4l-27.1,0c0.1,4.1,1.3,7.4,3.7,10.1c2.4,2.6,5.3,3.9,8.8,3.9c5,0,9.5-3,11.4-8l2.4,1.1
				c-2.4,5.8-7.7,9.4-13.8,9.4C212.6,58.7,209.1,57.1,206.1,53.9 M208.6,30.7c-2.3,2.3-3.7,5.2-4.1,8.9l24.2,0
				c-0.8-7.5-5.5-12.3-11.8-12.3C213.7,27.3,210.9,28.4,208.6,30.7"/>
		</g>
		<rect x="240.2" y="12.7" class="st0" width="2.6" height="45.5"/>
		<g>
			<path class="st0" d="M257.5,13.5c1.5,1.4,0.3,3.7-1.6,3.7c-1.1,0-2.2-1-2.2-2.2C253.7,13.2,256,12.1,257.5,13.5 M254.7,25.3h2.6
				v32.9h-2.6V25.3z"/>
			<path class="st0" d="M271.4,58.1l-2.6,0V25.3h2.6v7.4l0,1.8l0.9-1.7c2.8-4.5,7.5-8,12.5-8c3.9,0,6.8,1.4,8.2,2.9
				c0.7,0.7,1.2,1.6,1.5,2.7c0.8,2.1,0.7,2.7,0.7,3.8v23.9h-2.6v-24c0-0.7,0-1.2-0.6-2.7c-0.7-2-2.6-4.1-7.2-4.1
				c-3.4,0-6.4,1.5-9.3,4.5c-2.8,2.9-4.1,6.9-4.1,11.6V58.1z"/>
		</g>
	</g>
</g>
</svg>
