<?xml version="1.0" encoding="utf-8"?>
<!-- Generator: Adobe Illustrator 16.0.0, SVG Export Plug-In . SVG Version: 6.00 Build 0)  -->
<!DOCTYPE svg PUBLIC "-//W3C//DTD SVG 1.1//EN" "http://www.w3.org/Graphics/SVG/1.1/DTD/svg11.dtd">
<svg version="1.1" id="Layer_1" xmlns="http://www.w3.org/2000/svg" xmlns:xlink="http://www.w3.org/1999/xlink" x="0px" y="0px"
	 width="593.037px" height="133.415px" viewBox="9.18 330.72 593.037 133.415" enable-background="new 9.18 330.72 593.037 133.415"
	 xml:space="preserve">
<g>
	<g>
		<g>
			<g>
				<path fill="#022337" d="M53.448,383.556l9.588,28.968h30.6l9.588-28.968l-24.888-17.748L53.448,383.556z M95.88,386.208
					L89.352,406.2H67.32l-6.731-20.4l17.544-12.648L95.676,385.8L95.88,386.208z"/>
				<path fill="#022337" d="M136.272,372.744l-9.588-3.06l-5.712-1.836l0,0v-34.884L87.72,343.572l-9.384-12.852l-3.468,4.692
					l-5.916,8.16L35.496,332.76v34.884l-15.301,4.896l5.305,7.344l4.08,5.712l-20.4,28.356l33.048,10.812v16.116l15.3-4.896l0,0l0,0
					l0.204,0.203l20.4,27.947l20.604-28.15l0,0l0,0l15.504,4.896v-16.32l0.408-0.202l4.08-1.226l28.765-9.384L126.888,385.8
					L136.272,372.744z M114.852,341.124L114.852,341.124L114.852,341.124v24.48l0,0l0,0l-5.712-1.836l-5.712-1.836l-1.836,2.652
					l-5.1-3.672l0,0l0,0l1.836-2.652l-6.937-9.588L114.852,341.124z M41.616,341.124L41.616,341.124L41.616,341.124l23.46,7.548
					l-6.937,9.588l1.021,1.428l0.815,1.02l-5.1,3.672l0,0l0,0l-1.836-2.652L41.82,365.4l0,0l0,0L41.616,341.124z M42.432,406.608
					v11.832l-5.712-1.838l-17.748-5.712l0,0l0,0l14.28-19.788l0,0l0,0l4.08,5.508l2.855,4.08l1.225-0.408l1.836-0.612l0,0l0,0
					l1.224,3.672l0.816,2.244L42.432,406.608z M78.336,453.732L78.336,453.732L78.336,453.732l-14.484-19.788l11.22-3.672v-3.266
					l0,0h6.324l0,0v1.632v1.633l5.712,1.837l5.712,1.836l-3.264,4.486L78.336,453.732z M108.12,411.096v21.624l0,0l0,0l-20.604-6.73
					v-4.896H68.952v4.896l-0.408,0.204l-2.448,0.814l-17.544,5.712l0,0l0,0v-21.624l4.692-1.428l-5.916-17.748l-3.061,1.02
					l-1.632,0.408l0,0l0,0l-12.648-17.34l20.4-6.732l2.856,4.08L68.34,362.34l-2.856-4.08l12.853-17.34l12.647,17.34l-2.855,4.08
					l15.096,11.016l2.856-4.08l20.399,6.732l-12.647,17.34l0,0l0,0l-4.692-1.428l-4.08,12.854l-1.632,4.896l1.632,0.408
					L108.12,411.096z M137.496,410.892L137.496,410.892L137.496,410.892l-15.912,5.102l-7.344,2.448v-11.832l-3.061-1.021
					l1.224-3.672l0.816-2.448l2.04,0.612l1.02,0.408l2.244-3.266l4.692-6.324l0,0l0,0l4.896,6.732L137.496,410.892z"/>
			</g>
		</g>
	</g>
	<g>
		<path fill="#022337" d="M194.616,351.324h40.596c7.14,0,13.464,2.448,18.563,7.752c5.305,5.1,7.752,11.22,7.752,18.36
			c0,5.916-1.836,11.22-5.304,15.912c-3.468,4.488-7.956,7.548-13.464,8.976l22.032,41.004h-6.528l-21.624-39.984h-36.516v39.984
			h-5.508V351.324L194.616,351.324z M200.124,356.628v41.208h35.088c5.712,0,10.607-2.04,14.688-5.916
			c4.08-4.08,6.12-8.772,6.12-14.484s-2.04-10.608-6.12-14.688s-8.771-6.12-14.688-6.12H200.124L200.124,356.628z"/>
		<path fill="#022337" d="M285.6,394.776h-5.304c0-1.02-0.204-2.448,1.836-6.732c1.02-2.244,2.244-4.08,4.08-5.916
			c3.264-3.672,11.016-6.936,20.808-6.936c7.956,0,13.872,2.04,17.137,4.896c4.896,4.692,5.712,10.2,5.508,14.484v39.372
			c0,2.854,2.04,5.508,5.713,5.508c2.243,0,4.487-1.428,5.1-2.448l0.612-1.02l4.691,2.04c-0.204,0.406-0.611,1.02-1.021,1.632
			c-1.021,1.428-4.896,4.486-9.181,4.486c-6.937,0-10.812-5.1-10.812-11.016v-2.04l-1.836,2.04
			c-3.264,3.876-7.344,6.732-11.832,8.364c-4.487,1.632-7.956,2.448-10.404,2.448c-2.651,0-5.1-0.204-9.995-1.634
			c-6.937-2.04-13.465-7.548-13.668-19.38c0-5.508,2.447-9.792,7.14-13.056s10.404-5.508,16.932-6.732l23.256-4.69v-4.284
			c0-3.264-0.408-5.508-2.448-8.772s-7.141-5.304-14.688-5.304c-17.136,0-20.398,9.18-21.419,12.852L285.6,394.776z M324.36,403.752
			l-22.031,4.488c-13.465,2.65-20.196,7.956-20.196,15.504c0,5.508,2.652,9.792,5.508,11.832c5.304,3.06,10.812,3.672,12.852,3.672
			c5.305,0,10.404-1.632,15.708-5.304c5.305-3.672,7.956-8.16,7.956-14.076v-16.116H324.36L324.36,403.752z"/>
		<polygon fill="#022337" points="398.004,376.212 374.544,438.636 351.084,376.212 345.575,376.212 370.871,443.328 
			378.216,443.328 403.512,376.212 		"/>
		<g>
			<path fill="#022337" d="M420.444,434.556c-6.12-6.526-8.977-14.688-8.977-24.684c0-10.2,2.855-18.36,8.977-24.888
				c6.12-6.528,13.26-9.792,22.031-9.792s15.912,3.264,21.217,9.792c5.508,6.324,8.363,14.688,8.363,24.888v0.816h-55.283
				c0.203,8.362,2.651,15.096,7.548,20.604c4.896,5.304,10.812,7.956,17.952,7.956c10.199,0,19.38-6.12,23.256-16.32l4.896,2.244
				c-4.896,11.832-15.708,19.176-28.152,19.176C433.703,444.348,426.564,441.084,420.444,434.556 M425.544,387.228
				c-4.692,4.692-7.549,10.608-8.364,18.156h49.368c-1.632-15.3-11.221-25.092-24.072-25.092
				C435.948,380.292,430.236,382.536,425.544,387.228"/>
		</g>
		<rect x="490.008" y="350.508" fill="#022337" width="5.305" height="92.82"/>
		<g>
			<path fill="#022337" d="M525.3,352.14c3.061,2.856,0.611,7.548-3.265,7.548c-2.244,0-4.487-2.04-4.487-4.488
				C517.548,351.528,522.24,349.284,525.3,352.14 M519.588,376.212h5.304v67.116h-5.304V376.212L519.588,376.212z"/>
			<path fill="#022337" d="M553.656,443.124h-5.305v-66.912h5.305v15.096v3.672l1.836-3.468c5.712-9.18,15.3-16.32,25.5-16.32
				c7.956,0,13.872,2.856,16.729,5.916c1.429,1.428,2.448,3.264,3.061,5.508c1.632,4.284,1.429,5.508,1.429,7.752v48.756h-5.305
				v-48.96c0-1.428,0-2.448-1.225-5.508c-1.428-4.08-5.305-8.364-14.688-8.364c-6.937,0-13.057,3.06-18.973,9.18
				c-5.712,5.916-8.363,14.076-8.363,23.664V443.124z"/>
		</g>
	</g>
</g>
</svg>
